<svg preserveAspectRatio="none" width="100%" height="100%" overflow="visible" style="display: block;" viewBox="0 0 26.3054 25.7598" fill="none" xmlns="http://www.w3.org/2000/svg">
<path id="Vector" d="M9.65527 1.02344C10.3406 0.531638 10.8313 0.43989 11.1416 0.533203C11.2086 0.553429 11.3359 0.611356 11.5332 0.728516C11.7236 0.841572 11.9553 0.994451 12.2236 1.18555C12.7601 1.56763 13.424 2.0858 14.1719 2.69629C15.6668 3.91665 17.4748 5.49053 19.2236 7.04883C20.9716 8.6063 22.6569 10.1452 23.9053 11.2949C24.5292 11.8696 25.0437 12.3471 25.4023 12.6807C25.5389 12.8077 25.6525 12.9143 25.7412 12.9971L22.7793 23.666L22.7666 23.7129L22.7627 23.7607C22.7537 23.8775 22.7345 23.9927 22.6875 24.1055H22.6865C22.573 24.3789 22.3237 24.6216 21.8838 24.8174C21.441 25.0144 20.8457 25.1447 20.124 25.21C18.6818 25.3402 16.8507 25.2019 15 24.9434C11.3065 24.4274 7.65747 23.4506 7.15625 23.3164L6.87793 23.2422H6.87695C5.91199 22.9753 5.08121 22.7028 4.41406 22.3516C3.78116 22.0183 3.323 21.6313 3.03613 21.1455L2.92383 20.9307C2.78589 20.6326 2.6987 20.3027 2.51563 19.7744C2.34126 19.2713 2.10209 18.6667 1.69238 17.9375C1.21575 17.0902 0.872255 16.6021 0.597656 16.3184L0.595703 16.3164C0.560663 16.2803 0.458204 16.1361 0.518555 15.6641C0.578389 15.1961 0.789101 14.4982 1.25098 13.4834C2.17178 11.4604 4.03432 8.2958 7.42773 3.39648C8.22505 2.3004 8.98676 1.50322 9.65527 1.02344Z" fill="var(--fill-0, #2E7E33)" stroke="var(--stroke-0, white)"/>
</svg>
