<svg preserveAspectRatio="none" width="100%" height="100%" overflow="visible" style="display: block;" viewBox="0 0 59.7613 46.0739" fill="none" xmlns="http://www.w3.org/2000/svg">
<g id="Group">
<path id="Vector" d="M4.66778 14.5343C0.897781 12.6743 -0.82222 8.43427 0.37778 4.99427C1.77778 0.964266 6.95778 -1.32573 11.4678 0.824266L4.66778 14.5443V14.5343Z" fill="var(--fill-0, #C11720)"/>
<path id="Vector_2" d="M12.3881 1.7341L5.78809 15.6541L7.62809 16.7441L14.8581 1.7041L12.3881 1.7341Z" fill="var(--fill-0, #1F74BB)"/>
<path id="Vector_3" d="M9.16797 17.3039L42.488 46.0739C42.488 46.0739 37.778 44.4439 41.718 41.3239C45.658 38.1939 49.968 36.1639 47.938 33.9739C45.908 31.7839 45.258 29.6639 48.668 27.7139C52.078 25.7639 57.688 21.7839 55.408 19.3439C53.128 16.9039 54.188 15.8539 55.738 14.4639C57.278 13.0839 61.998 10.3239 58.498 9.91395C55.008 9.50395 16.198 3.04395 16.198 3.04395L9.16797 17.3039Z" fill="var(--fill-0, #1F74BB)"/>
<path id="Vector_4" d="M52.3178 16.1043L15.7578 7.61427" stroke="var(--stroke-0, #E9E8CF)" stroke-width="3" stroke-linecap="round" stroke-linejoin="round"/>
<path id="Vector_5" d="M45.5178 28.3843L14.2178 11.4443" stroke="var(--stroke-0, #E9E8CF)" stroke-width="3" stroke-linecap="round" stroke-linejoin="round"/>
<path id="Vector_6" d="M39.138 39.8347L11.748 17.0947" stroke="var(--stroke-0, #E9E8CF)" stroke-width="3" stroke-linecap="round" stroke-linejoin="round"/>
</g>
</svg>
