<svg preserveAspectRatio="none" width="100%" height="100%" overflow="visible" style="display: block;" viewBox="0 0 244 40.0028" fill="none" xmlns="http://www.w3.org/2000/svg">
<g id="Logo">
<path id="Vector" d="M32.8771 16.4103L21.5829 18.1696C21.3094 16.5444 19.5638 15.645 16.8046 15.645C14.0454 15.645 12.4445 17.1755 12.3078 19.8817H32.8771V23.8422C32.8771 33.1676 26.7715 38.5246 16.0725 38.5246C7.02268 38.5246 1.19056 34.5641 0 27.6686L11.2942 25.9093C11.5677 27.5345 13.3133 28.4339 16.0725 28.4339C19.1052 28.4339 20.8911 26.9033 21.0359 24.1972H0.458526V20.2367C0.458526 10.9191 6.4274 5.55424 16.8046 5.55424C25.8544 5.55424 31.6865 9.51479 32.8771 16.4103Z" fill="var(--fill-0, white)"/>
<path id="Vector_2" d="M78.617 3.57396V37.8067H67.5963V3.57396H78.617Z" fill="var(--fill-0, white)"/>
<path id="Vector_3" d="M93.2657 12.9862V37.7988H82.245V12.9862H93.2657Z" fill="var(--fill-0, white)"/>
<path id="Vector_4" d="M107.914 10.7771L106.032 19.7396C108.051 17.3491 109.29 10.0592 115.951 10.0592C119.442 10.0592 121.831 11.503 122.933 14.3353L121.831 19.7396C123.85 17.3491 125.089 10.0592 131.75 10.0592C136.753 10.0592 139.512 13.0335 139.512 18.9744V37.7988H128.492V22.1223C128.492 20.3629 127.39 19.2426 126.103 19.2426C125.274 19.2426 124.494 19.5108 123.713 19.9211V37.7988H112.693V22.1223C112.693 20.3629 111.591 19.2426 110.304 19.2426C109.475 19.2426 108.695 19.5108 107.914 19.9211V37.7988H96.8937V10.7771H107.914Z" fill="var(--fill-0, white)"/>
<path id="Vector_5" d="M193.289 28.8442C191.27 31.2347 190.031 38.5247 182.912 38.5247C177.449 38.5247 174.69 35.5503 174.69 29.6095V10.7771H185.711V26.4537C185.711 28.213 186.813 29.3333 188.559 29.3333C189.709 29.3333 190.578 29.0651 191.406 28.6154V10.7771H202.427V37.7988H191.406L193.289 28.8363V28.8442Z" fill="var(--fill-0, white)"/>
<path id="Vector_6" d="M215.515 10.7771L219.368 28.5207L223.23 10.7771H234.435L226.721 37.7988H212.024L204.309 10.7771H215.515Z" fill="var(--fill-0, white)"/>
<path id="Vector_7" d="M170.266 26.1617C169.236 27.7633 167.587 35.4951 157.99 35.4477C148.305 35.4004 143.704 27.6608 142.835 26.1617C141.194 23.3452 148.932 11.8738 158.151 12.7101C166.26 13.4517 172.044 23.4083 170.266 26.1617Z" fill="var(--fill-0, #1F74BB)"/>
<path id="Vector_8" d="M145.119 36.3314C142.746 34.7692 141.258 31.9053 141.596 29.1203C141.934 26.3353 144.21 23.8185 147.042 23.3846C149.833 22.9507 152.528 24.4024 155.046 25.6568C157.572 26.9112 160.548 28.0237 163.147 26.927C164.852 26.2091 166.171 24.5996 168.013 24.3787C169.397 24.213 170.797 24.9231 171.625 26.0197C172.454 27.1164 172.743 28.5444 172.623 29.9014C172.486 31.5108 171.786 33.0651 170.684 34.2643C168.601 36.5049 165.343 37.286 162.254 37.4517C157.435 37.7199 149.327 39.1006 145.119 36.3314Z" fill="var(--fill-0, white)" stroke="var(--stroke-0, #C11720)" stroke-width="0.419689" stroke-miterlimit="10"/>
<path id="Vector_9" d="M143.253 25.7278H142.666V34.3432H143.253V25.7278Z" fill="var(--fill-0, #C11720)"/>
<path id="Vector_10" d="M146.849 23.2189H146.262V37.3728H146.849V23.2189Z" fill="var(--fill-0, #C11720)"/>
<path id="Vector_11" d="M150.445 23.8659H149.857V37.8619H150.445V23.8659Z" fill="var(--fill-0, #C11720)"/>
<path id="Vector_12" d="M154.04 24.9467H153.453V38.1144H154.04V24.9467Z" fill="var(--fill-0, #C11720)"/>
<path id="Vector_13" d="M157.323 26.5168H156.735V37.8698H157.323V26.5168Z" fill="var(--fill-0, #C11720)"/>
<path id="Vector_14" d="M160.918 27.0927H160.331V37.8698H160.918V27.0927Z" fill="var(--fill-0, #C11720)"/>
<path id="Vector_15" d="M164.514 26.1065H163.927V37.3728H164.514V26.1065Z" fill="var(--fill-0, #C11720)"/>
<path id="Vector_16" d="M167.933 24.3077H167.346V36.5365H167.933V24.3077Z" fill="var(--fill-0, #C11720)"/>
<path id="Vector_17" d="M171.529 25.5069H170.942V33.4043H171.529V25.5069Z" fill="var(--fill-0, #C11720)"/>
<path id="Vector_18" d="M154.242 23.0059C154.097 23.069 153.839 23.1874 153.477 23.211C151.997 23.3136 150.34 21.7751 150.646 20.7732C150.726 20.5207 150.887 20.284 151.161 20.0789C151.925 19.503 153.365 19.3136 153.453 19.3057C154.298 19.2032 154.998 19.3057 155.352 19.4635C155.537 19.5424 155.673 19.645 155.794 19.8185C156.357 20.6233 155.561 22.4063 154.234 23.0138L154.242 23.0059Z" fill="var(--fill-0, #E9E8CF)"/>
<path id="Vector_19" d="M154.338 22.217C154.96 22.217 155.464 21.7224 155.464 21.1124C155.464 20.5024 154.96 20.0079 154.338 20.0079C153.716 20.0079 153.212 20.5024 153.212 21.1124C153.212 21.7224 153.716 22.217 154.338 22.217Z" fill="var(--fill-0, #2B421C)"/>
<path id="Vector_20" d="M160.733 23.0059C160.589 23.069 160.331 23.1874 159.969 23.211C158.489 23.3136 156.832 21.7751 157.138 20.7732C157.218 20.5207 157.379 20.284 157.652 20.0789C158.417 19.503 159.857 19.3136 159.945 19.3057C160.79 19.2032 161.49 19.3057 161.843 19.4635C162.028 19.5424 162.165 19.645 162.286 19.8185C162.849 20.6233 162.053 22.4063 160.725 23.0138L160.733 23.0059Z" fill="var(--fill-0, #E9E8CF)"/>
<path id="Vector_21" d="M160.83 22.217C161.452 22.217 161.956 21.7224 161.956 21.1124C161.956 20.5024 161.452 20.0079 160.83 20.0079C160.208 20.0079 159.704 20.5024 159.704 21.1124C159.704 21.7224 160.208 22.217 160.83 22.217Z" fill="var(--fill-0, #2B421C)"/>
<g id="Group">
<path id="Vector_22" d="M87.7554 12.0552C90.8831 12.0552 93.4186 9.35657 93.4186 6.02761C93.4186 2.69865 90.8831 0 87.7554 0C84.6277 0 82.0922 2.69865 82.0922 6.02761C82.0922 9.35657 84.6277 12.0552 87.7554 12.0552Z" fill="var(--fill-0, #ED772A)"/>
<path id="Vector_23" d="M85.8811 0.473378C88.8333 2.24064 90.3778 4.81263 89.7906 6.70612C89.5171 7.58186 88.8414 8.14991 88.5598 8.38659C86.3637 10.2012 83.3149 9.30967 82.9529 9.19922" stroke="var(--stroke-0, white)" stroke-width="0.136951" stroke-linecap="round" stroke-linejoin="round"/>
<path id="Vector_24" d="M82.607 3.90532C84.6905 5.04142 87.0233 6.16173 89.6056 7.20315C90.6996 7.64497 91.7695 8.03945 92.8072 8.39448" stroke="var(--stroke-0, white)" stroke-width="0.136951" stroke-linecap="round" stroke-linejoin="round"/>
<path id="Vector_25" d="M88.1576 0.134121C90.5065 1.56213 91.9465 3.81854 91.7132 6.01972C91.5523 7.5424 90.6352 8.63905 90.2572 9.10453C88.6805 10.998 86.5729 11.5266 85.8167 11.6844" stroke="var(--stroke-0, white)" stroke-width="0.136951" stroke-linecap="round" stroke-linejoin="round"/>
<path id="Vector_26" d="M93.4186 5.62525C92.8796 6.31953 92.2602 7.23472 91.7132 8.38659C91.2225 9.42012 90.9168 10.3669 90.7237 11.1558" stroke="var(--stroke-0, white)" stroke-width="0.136951" stroke-linecap="round" stroke-linejoin="round"/>
</g>
<g id="Group_2">
<path id="Vector_27" d="M240.066 11.0533C240.927 10.1696 242.27 10.0671 243.139 10.6982C244.153 11.4398 244.338 13.0651 243.332 14.1302L240.066 11.0533Z" fill="var(--fill-0, #E7382C)"/>
<path id="Vector_28" d="M242.986 14.3037L239.648 11.2663L239.181 11.6765L242.777 14.9901L242.986 14.3037Z" fill="var(--fill-0, #9FD6DF)"/>
<path id="Vector_29" d="M238.884 12.0552L227.815 18.7613C227.815 18.7613 228.692 17.6016 229.223 18.9586C229.754 20.3235 229.947 21.6884 230.743 21.3176C231.539 20.9467 232.199 20.9546 232.44 22.0671C232.682 23.1795 233.309 25.0809 234.202 24.6627C235.095 24.2446 235.296 24.6312 235.545 25.1755C235.795 25.7199 236.157 27.2663 236.583 26.3353C237.01 25.4043 242.279 15.2347 242.279 15.2347L238.884 12.0473V12.0552Z" fill="var(--fill-0, #9FD6DF)"/>
<path id="Vector_30" d="M235.393 24.0947L241.032 14.7219" stroke="var(--stroke-0, #E9E8CF)" stroke-width="0.485955" stroke-linecap="round" stroke-linejoin="round"/>
<path id="Vector_31" d="M232.529 21.144L240.082 13.9645" stroke="var(--stroke-0, #E9E8CF)" stroke-width="0.485955" stroke-linecap="round" stroke-linejoin="round"/>
<path id="Vector_32" d="M229.874 18.3826L238.715 12.789" stroke="var(--stroke-0, #E9E8CF)" stroke-width="0.485955" stroke-linecap="round" stroke-linejoin="round"/>
</g>
<path id="Vector_33" d="M49.357 13.5515L42.5198 15.9577C37.7862 17.6236 35.3258 22.7377 37.0244 27.3803L39.4779 34.0859C41.1765 38.7285 46.3909 41.1415 51.1245 39.4756L57.9617 37.0693C62.6953 35.4034 65.1557 30.2893 63.4571 25.6467L61.0036 18.9411C59.305 14.2986 54.0906 11.8855 49.357 13.5515Z" fill="var(--fill-0, #D81D61)"/>
<path id="Vector_34" d="M63.7351 23.7791C63.6627 24.5207 63.5098 25.1203 63.3811 25.5306C61.362 24.1499 56.6883 21.3807 50.2769 21.3018C43.5438 21.2229 38.6368 24.1499 36.6177 25.5306C36.2396 25.073 35.7248 24.2919 35.757 23.3531C35.7972 22.359 36.4407 21.357 38.1461 20.2367C42.1522 17.5937 46.9466 17.6174 55.7792 16.8284C58.8843 16.5523 60.7506 16.3314 62.1021 17.7909C63.2926 19.0848 63.9442 21.5542 63.7351 23.7791Z" fill="var(--fill-0, #2E7E33)"/>
<path id="Vector_35" d="M29.2169 17.5464C27.954 18.1617 27.9459 20.8521 27.9459 21.1282C27.9459 21.6647 28.0183 22.1065 28.0827 22.4142C28.0827 22.4142 29.418 22.3037 31.051 22.3353C31.7911 22.3511 32.2335 22.4142 35.765 23.0848C35.765 23.0848 35.765 23.0848 35.765 23.069C35.765 23.069 35.1456 21.8304 34.5423 20.86C33.9068 19.8422 30.8741 16.7495 29.233 17.5542L29.2169 17.5464Z" fill="var(--fill-0, #2E7E33)"/>
<path id="Vector_36" d="M34.4457 23.787C31.6865 23.858 28.9756 26.2012 28.324 28.9783C27.6161 32.0079 29.402 35.3057 30.496 35.3136C31.22 35.3136 31.7026 33.7278 32.4186 31.432C33.5206 27.8895 33.6252 24.931 35.1617 24.4024C35.4271 24.3077 36.1511 24.1499 36.135 24.0237C36.135 23.9763 36.0385 23.9448 35.6282 23.8895C35.1215 23.8185 34.5905 23.7791 34.4538 23.787H34.4457Z" fill="var(--fill-0, #2E7E33)"/>
<path id="Vector_37" d="M60.9115 29.7278C61.7159 28.9625 62.1986 27.5503 61.6596 26.714C60.638 25.144 56.4952 26.3826 55.7712 27.4162C55.4816 27.8343 55.4494 28.2604 55.4494 28.2604C55.4494 28.2604 55.4172 28.7337 55.6988 29.215C56.2699 30.2091 59.2785 31.2978 60.9196 29.7278H60.9115Z" fill="var(--fill-0, white)"/>
<path id="Vector_38" d="M53.0924 29.1203C53.1809 28.9546 53.2775 28.7337 53.2775 28.4655C53.2694 26.6667 49.2231 24.5365 47.6304 25.6962C46.834 26.2801 46.8179 27.5661 46.8179 27.645C46.8179 28.4024 47.1397 29.0572 47.4614 29.4201C48.4187 30.4773 50.7676 30.4694 53.0924 29.1203Z" fill="var(--fill-0, white)"/>
<path id="Vector_39" d="M59.6486 29.7199C60.1461 29.7199 60.5495 29.3243 60.5495 28.8363C60.5495 28.3483 60.1461 27.9527 59.6486 27.9527C59.151 27.9527 58.7476 28.3483 58.7476 28.8363C58.7476 29.3243 59.151 29.7199 59.6486 29.7199Z" fill="var(--fill-0, #333333)"/>
<path id="Vector_40" d="M51.9984 29.1676C52.496 29.1676 52.8994 28.772 52.8994 28.284C52.8994 27.796 52.496 27.4004 51.9984 27.4004C51.5008 27.4004 51.0975 27.796 51.0975 28.284C51.0975 28.772 51.5008 29.1676 51.9984 29.1676Z" fill="var(--fill-0, #333333)"/>
</g>
</svg>
