<svg preserveAspectRatio="none" width="100%" height="100%" overflow="visible" style="display: block;" viewBox="0 0 143 24.0017" fill="none" xmlns="http://www.w3.org/2000/svg">
<g id="Logo">
<path id="Vector" d="M19.2681 9.84615L12.649 10.9018C12.4887 9.92662 11.4656 9.38698 9.84858 9.38698C8.2315 9.38698 7.29332 10.3053 7.21317 11.929H19.2681V14.3053C19.2681 19.9006 15.6898 23.1148 9.41956 23.1148C4.11575 23.1148 0.697745 20.7385 0 16.6012L6.61915 15.5456C6.77944 16.5207 7.80249 17.0604 9.41956 17.0604C11.1969 17.0604 12.2435 16.142 12.3284 14.5183H0.268726V12.142C0.268726 6.55148 3.76688 3.33254 9.84858 3.33254C15.1524 3.33254 18.5704 5.70887 19.2681 9.84615Z" fill="var(--fill-0, white)"/>
<path id="Vector_2" d="M46.0747 2.14438V22.684H39.6159V2.14438H46.0747Z" fill="var(--fill-0, white)"/>
<path id="Vector_3" d="M54.6598 7.79172V22.6793H48.201V7.79172H54.6598Z" fill="var(--fill-0, white)"/>
<path id="Vector_4" d="M63.2449 6.46627L62.1417 11.8438C63.3251 10.4095 64.0511 6.0355 67.9547 6.0355C70.0008 6.0355 71.401 6.90178 72.0469 8.60118L71.401 11.8438C72.5843 10.4095 73.3104 6.0355 77.214 6.0355C80.1464 6.0355 81.7635 7.82012 81.7635 11.3846V22.6793H75.3046V13.2734C75.3046 12.2178 74.6587 11.5456 73.9044 11.5456C73.4188 11.5456 72.9615 11.7065 72.5042 11.9527V22.6793H66.0453V13.2734C66.0453 12.2178 65.3994 11.5456 64.6451 11.5456C64.1595 11.5456 63.7022 11.7065 63.2449 11.9527V22.6793H56.7861V6.46627H63.2449Z" fill="var(--fill-0, white)"/>
<path id="Vector_5" d="M113.28 17.3065C112.097 18.7408 111.37 23.1148 107.198 23.1148C103.997 23.1148 102.38 21.3302 102.38 17.7657V6.46627H108.839V15.8722C108.839 16.9278 109.485 17.6 110.508 17.6C111.182 17.6 111.691 17.4391 112.177 17.1692V6.46627H118.636V22.6793H112.177L113.28 17.3018V17.3065Z" fill="var(--fill-0, white)"/>
<path id="Vector_6" d="M126.306 6.46627L128.564 17.1124L130.827 6.46627H137.394L132.873 22.6793H124.26L119.739 6.46627H126.306Z" fill="var(--fill-0, white)"/>
<path id="Vector_7" d="M99.787 15.697C99.1835 16.658 98.217 21.297 92.5926 21.2686C86.9164 21.2402 84.2197 16.5964 83.7105 15.697C82.7488 14.0071 87.2841 7.12426 92.6869 7.62604C97.4392 8.07101 100.829 14.045 99.787 15.697Z" fill="var(--fill-0, #1F74BB)"/>
<path id="Vector_8" d="M85.0494 21.7988C83.6587 20.8615 82.7865 19.1432 82.9845 17.4722C83.1825 15.8012 84.5167 14.2911 86.1762 14.0308C87.8121 13.7704 89.3915 14.6414 90.8671 15.3941C92.3475 16.1467 94.0918 16.8142 95.6146 16.1562C96.6141 15.7254 97.3873 14.7598 98.4669 14.6272C99.2778 14.5278 100.098 14.9538 100.584 15.6118C101.069 16.2698 101.239 17.1266 101.168 17.9408C101.088 18.9065 100.678 19.8391 100.032 20.5586C98.8111 21.903 96.9017 22.3716 95.0913 22.471C92.2673 22.632 87.5151 23.4604 85.0494 21.7988Z" fill="var(--fill-0, white)" stroke="var(--stroke-0, #C11720)" stroke-width="0.419689" stroke-miterlimit="10"/>
<path id="Vector_9" d="M83.9557 15.4367H83.6115V20.6059H83.9557V15.4367Z" fill="var(--fill-0, #C11720)"/>
<path id="Vector_10" d="M86.0631 13.9314H85.7189V22.4237H86.0631V13.9314Z" fill="var(--fill-0, #C11720)"/>
<path id="Vector_11" d="M88.1704 14.3195H87.8263V22.7172H88.1704V14.3195Z" fill="var(--fill-0, #C11720)"/>
<path id="Vector_12" d="M90.2778 14.968H89.9337V22.8686H90.2778V14.968Z" fill="var(--fill-0, #C11720)"/>
<path id="Vector_13" d="M92.2013 15.9101H91.8572V22.7219H92.2013V15.9101Z" fill="var(--fill-0, #C11720)"/>
<path id="Vector_14" d="M94.3087 16.2556H93.9646V22.7219H94.3087V16.2556Z" fill="var(--fill-0, #C11720)"/>
<path id="Vector_15" d="M96.4161 15.6639H96.0719V22.4237H96.4161V15.6639Z" fill="var(--fill-0, #C11720)"/>
<path id="Vector_16" d="M98.4198 14.5846H98.0756V21.9219H98.4198V14.5846Z" fill="var(--fill-0, #C11720)"/>
<path id="Vector_17" d="M100.527 15.3041H100.183V20.0426H100.527V15.3041Z" fill="var(--fill-0, #C11720)"/>
<path id="Vector_18" d="M90.3957 13.8035C90.3108 13.8414 90.16 13.9124 89.9478 13.9266C89.0803 13.9882 88.1092 13.0651 88.2883 12.4639C88.3355 12.3124 88.4297 12.1704 88.59 12.0473C89.0379 11.7018 89.8818 11.5882 89.9337 11.5834C90.4287 11.5219 90.8388 11.5834 91.0463 11.6781C91.1547 11.7254 91.2349 11.787 91.3056 11.8911C91.6356 12.374 91.1689 13.4438 90.391 13.8083L90.3957 13.8035Z" fill="var(--fill-0, #E9E8CF)"/>
<path id="Vector_19" d="M90.4523 13.3302C90.8168 13.3302 91.1123 13.0335 91.1123 12.6675C91.1123 12.3014 90.8168 12.0047 90.4523 12.0047C90.0877 12.0047 89.7922 12.3014 89.7922 12.6675C89.7922 13.0335 90.0877 13.3302 90.4523 13.3302Z" fill="var(--fill-0, #2B421C)"/>
<path id="Vector_20" d="M94.2003 13.8035C94.1154 13.8414 93.9646 13.9124 93.7524 13.9266C92.8849 13.9882 91.9138 13.0651 92.0929 12.4639C92.14 12.3124 92.2343 12.1704 92.3946 12.0473C92.8425 11.7018 93.6864 11.5882 93.7383 11.5834C94.2333 11.5219 94.6434 11.5834 94.8509 11.6781C94.9593 11.7254 95.0395 11.787 95.1102 11.8911C95.4402 12.374 94.9735 13.4438 94.1956 13.8083L94.2003 13.8035Z" fill="var(--fill-0, #E9E8CF)"/>
<path id="Vector_21" d="M94.2569 13.3302C94.6214 13.3302 94.9169 13.0335 94.9169 12.6675C94.9169 12.3014 94.6214 12.0047 94.2569 12.0047C93.8923 12.0047 93.5968 12.3014 93.5968 12.6675C93.5968 13.0335 93.8923 13.3302 94.2569 13.3302Z" fill="var(--fill-0, #2B421C)"/>
<g id="Group">
<path id="Vector_22" d="M51.4304 7.23314C53.2634 7.23314 54.7494 5.61394 54.7494 3.61657C54.7494 1.61919 53.2634 0 51.4304 0C49.5974 0 48.1114 1.61919 48.1114 3.61657C48.1114 5.61394 49.5974 7.23314 51.4304 7.23314Z" fill="var(--fill-0, #ED772A)"/>
<path id="Vector_23" d="M50.3319 0.284027C52.0621 1.34438 52.9673 2.88758 52.6232 4.02367C52.4629 4.54912 52.0669 4.88994 51.9019 5.03196C50.6148 6.12071 48.828 5.5858 48.6159 5.51953" stroke="var(--stroke-0, white)" stroke-width="0.136951" stroke-linecap="round" stroke-linejoin="round"/>
<path id="Vector_24" d="M48.4131 2.34319C49.6342 3.02485 51.0014 3.69704 52.5147 4.32189C53.1559 4.58698 53.7829 4.82367 54.3911 5.03669" stroke="var(--stroke-0, white)" stroke-width="0.136951" stroke-linecap="round" stroke-linejoin="round"/>
<path id="Vector_25" d="M51.6661 0.0804725C53.0428 0.937277 53.8867 2.29112 53.7499 3.61183C53.6556 4.52544 53.1182 5.18343 52.8966 5.46272C51.9726 6.59882 50.7374 6.91598 50.2942 7.01065" stroke="var(--stroke-0, white)" stroke-width="0.136951" stroke-linecap="round" stroke-linejoin="round"/>
<path id="Vector_26" d="M54.7494 3.37515C54.4335 3.79172 54.0705 4.34083 53.7499 5.03195C53.4624 5.65207 53.2832 6.22012 53.1701 6.69349" stroke="var(--stroke-0, white)" stroke-width="0.136951" stroke-linecap="round" stroke-linejoin="round"/>
</g>
<g id="Group_2">
<path id="Vector_27" d="M140.695 6.63195C141.199 6.10177 141.986 6.04024 142.496 6.41893C143.09 6.8639 143.198 7.83905 142.609 8.47811L140.695 6.63195Z" fill="var(--fill-0, #E7382C)"/>
<path id="Vector_28" d="M142.406 8.58225L140.449 6.75976L140.176 7.00592L142.283 8.99408L142.406 8.58225Z" fill="var(--fill-0, #9FD6DF)"/>
<path id="Vector_29" d="M140.002 7.23313L133.514 11.2568C133.514 11.2568 134.028 10.5609 134.339 11.3751C134.651 12.1941 134.764 13.013 135.231 12.7905C135.697 12.568 136.084 12.5728 136.225 13.2402C136.367 13.9077 136.734 15.0485 137.258 14.7976C137.781 14.5467 137.899 14.7787 138.045 15.1053C138.191 15.432 138.403 16.3598 138.653 15.8012C138.903 15.2426 141.991 9.14083 141.991 9.14083L140.002 7.2284V7.23313Z" fill="var(--fill-0, #9FD6DF)"/>
<path id="Vector_30" d="M137.955 14.4568L141.26 8.83313" stroke="var(--stroke-0, #E9E8CF)" stroke-width="0.485955" stroke-linecap="round" stroke-linejoin="round"/>
<path id="Vector_31" d="M136.277 12.6864L140.704 8.3787" stroke="var(--stroke-0, #E9E8CF)" stroke-width="0.485955" stroke-linecap="round" stroke-linejoin="round"/>
<path id="Vector_32" d="M134.721 11.0296L139.903 7.67337" stroke="var(--stroke-0, #E9E8CF)" stroke-width="0.485955" stroke-linecap="round" stroke-linejoin="round"/>
</g>
<path id="Vector_33" d="M28.9264 8.13087L24.9194 9.57461C22.1452 10.5742 20.7032 13.6426 21.6987 16.4282L23.1366 20.4515C24.1321 23.2371 27.1881 24.6849 29.9623 23.6853L33.9693 22.2416C36.7436 21.242 38.1855 18.1736 37.19 15.388L35.7521 11.3647C34.7566 8.57913 31.7006 7.1313 28.9264 8.13087Z" fill="var(--fill-0, #D81D61)"/>
<path id="Vector_34" d="M37.3529 14.2675C37.3105 14.7124 37.2209 15.0722 37.1455 15.3183C35.9622 14.4899 33.223 12.8284 29.4656 12.7811C25.5196 12.7337 22.6437 14.4899 21.4604 15.3183C21.2388 15.0438 20.9371 14.5751 20.9559 14.0118C20.9795 13.4154 21.3567 12.8142 22.3561 12.142C24.7039 10.5562 27.5138 10.5704 32.6903 10.097C34.5101 9.93136 35.6038 9.79881 36.3959 10.6746C37.0936 11.4509 37.4755 12.9325 37.3529 14.2675Z" fill="var(--fill-0, #2E7E33)"/>
<path id="Vector_35" d="M17.123 10.5278C16.3829 10.897 16.3782 12.5112 16.3782 12.6769C16.3782 12.9988 16.4206 13.2639 16.4583 13.4485C16.4583 13.4485 17.2409 13.3822 18.1979 13.4012C18.6317 13.4107 18.891 13.4485 20.9606 13.8509C20.9606 13.8509 20.9606 13.8509 20.9606 13.8414C20.9606 13.8414 20.5976 13.0982 20.244 12.516C19.8716 11.9053 18.0942 10.0497 17.1325 10.5325L17.123 10.5278Z" fill="var(--fill-0, #2E7E33)"/>
<path id="Vector_36" d="M20.1875 14.2722C18.5704 14.3148 16.9816 15.7207 16.5997 17.387C16.1849 19.2047 17.2315 21.1834 17.8726 21.1882C18.2969 21.1882 18.5798 20.2367 18.9994 18.8592C19.6453 16.7337 19.7066 14.9586 20.607 14.6414C20.7626 14.5846 21.1869 14.4899 21.1775 14.4142C21.1775 14.3858 21.1209 14.3669 20.8805 14.3337C20.5835 14.2911 20.2723 14.2675 20.1922 14.2722H20.1875Z" fill="var(--fill-0, #2E7E33)"/>
<path id="Vector_37" d="M35.6981 17.8367C36.1696 17.3775 36.4525 16.5302 36.1366 16.0284C35.5378 15.0864 33.1099 15.8296 32.6856 16.4497C32.5159 16.7006 32.497 16.9562 32.497 16.9562C32.497 16.9562 32.4781 17.2402 32.6431 17.529C32.9779 18.1254 34.7411 18.7787 35.7029 17.8367H35.6981Z" fill="var(--fill-0, white)"/>
<path id="Vector_38" d="M31.1157 17.4722C31.1675 17.3728 31.2241 17.2402 31.2241 17.0793C31.2194 16 28.848 14.7219 27.9145 15.4177C27.4478 15.768 27.4384 16.5396 27.4384 16.587C27.4384 17.0414 27.6269 17.4343 27.8155 17.6521C28.3765 18.2864 29.7532 18.2817 31.1157 17.4722Z" fill="var(--fill-0, white)"/>
<path id="Vector_39" d="M34.958 17.832C35.2496 17.832 35.486 17.5946 35.486 17.3018C35.486 17.009 35.2496 16.7716 34.958 16.7716C34.6663 16.7716 34.4299 17.009 34.4299 17.3018C34.4299 17.5946 34.6663 17.832 34.958 17.832Z" fill="var(--fill-0, #333333)"/>
<path id="Vector_40" d="M30.4745 17.5006C30.7661 17.5006 31.0025 17.2632 31.0025 16.9704C31.0025 16.6776 30.7661 16.4402 30.4745 16.4402C30.1829 16.4402 29.9465 16.6776 29.9465 16.9704C29.9465 17.2632 30.1829 17.5006 30.4745 17.5006Z" fill="var(--fill-0, #333333)"/>
</g>
</svg>
