<svg preserveAspectRatio="none" width="100%" height="100%" overflow="visible" style="display: block;" viewBox="0 0 56.9258 56.9258" fill="none" xmlns="http://www.w3.org/2000/svg">
<g id="Group 2">
<path id="Vector" d="M33.4187 3.041L8.47455 11.9919C3.79427 13.6714 1.36164 18.827 3.04111 23.5073L11.9921 48.4514C13.6715 53.1317 18.8271 55.5643 23.5074 53.8849L48.4515 44.9339C53.1318 43.2545 55.5645 38.0989 53.885 33.4186L44.934 8.47444C43.2546 3.79416 38.099 1.36153 33.4187 3.041Z" fill="var(--fill-0, #C11720)"/>
<path id="Vector_2" d="M32.6003 29.8721C30.0104 27.7105 32.3081 20.5289 34.6734 20.1714C35.7374 20.0144 36.8431 21.2321 37.7306 22.5556C39.6081 25.0111 39.3021 28.1367 37.5501 29.6029C36.1482 30.7793 33.8265 30.8916 32.5965 29.8673L32.6003 29.8721Z" fill="var(--fill-0, #E9E8CF)"/>
<path id="Vector_3" d="M21.4119 30.7338C19.1583 28.4102 22.3675 21.3267 24.6073 21.3349C25.5895 21.3371 26.3087 22.7028 26.7765 23.602C27.6596 25.287 28.6981 28.8932 26.5961 30.6493C25.1563 31.8561 22.5639 31.922 21.4081 30.7291L21.4119 30.7338Z" fill="var(--fill-0, #E9E8CF)"/>
<path id="Vector_4" d="M26.6199 25.572C25.8876 25.3295 24.9216 25.8979 24.5013 26.6412C23.9342 27.6273 24.2411 29.0607 25.3627 29.9699C25.606 29.9917 26.6347 30.042 27.2777 29.3528C28.3043 28.261 27.7605 25.9446 26.6199 25.572Z" fill="var(--fill-0, #D81D61)"/>
<path id="Vector_5" d="M37.7852 24.8067C37.0529 24.5642 36.0869 25.1325 35.6666 25.8759C35.0995 26.862 35.4064 28.2954 36.528 29.2045C36.7713 29.2264 37.8 29.2767 38.4429 28.5875C39.4696 27.4957 38.9258 25.1793 37.7852 24.8067Z" fill="var(--fill-0, #D81D61)"/>
</g>
</svg>
