<svg preserveAspectRatio="none" width="100%" height="100%" overflow="visible" style="display: block;" viewBox="0 0 18.6736 19.6757" fill="none" xmlns="http://www.w3.org/2000/svg">
<g id="Group">
<path id="Vector" d="M9.08677 19.6757C14.1053 19.6757 18.1735 15.3341 18.1735 9.9785C18.1735 4.62289 14.1053 0.281307 9.08677 0.281307C4.06828 0.281307 0 4.62289 0 9.9785C0 15.3341 4.06828 19.6757 9.08677 19.6757Z" fill="var(--fill-0, #1F74BB)"/>
<path id="Vector_2" d="M6.06998 1.04499C10.8135 3.88494 13.2925 8.03747 12.3502 11.0803C11.9175 12.4843 10.8297 13.4031 10.3727 13.785C6.85451 16.7005 1.94919 15.2726 1.3709 15.0976" stroke="var(--stroke-0, #030303)" stroke-linecap="round" stroke-linejoin="round"/>
<path id="Vector_3" d="M0.816879 6.56579C4.16527 8.39147 7.90998 10.2012 12.0469 11.8718C13.802 12.5798 15.5167 13.2162 17.1868 13.789" stroke="var(--stroke-0, #030303)" stroke-linecap="round" stroke-linejoin="round"/>
<path id="Vector_4" d="M9.72571 0.500072C13.4947 2.7951 15.8038 6.43453 15.4358 9.9785C15.181 12.4286 13.709 14.2026 13.0984 14.9424C10.5709 17.9852 7.18207 18.8444 5.97292 19.091" stroke="var(--stroke-0, #030303)" stroke-linecap="round" stroke-linejoin="round"/>
<path id="Vector_5" d="M18.1735 9.33414C17.3041 10.4518 16.3133 11.9315 15.4358 13.777C14.6472 15.4357 14.1579 16.971 13.8425 18.2398" stroke="var(--stroke-0, #030303)" stroke-linecap="round" stroke-linejoin="round"/>
</g>
</svg>
