<svg preserveAspectRatio="none" width="100%" height="100%" overflow="visible" style="display: block;" viewBox="0 0 59.7611 46.0741" fill="none" xmlns="http://www.w3.org/2000/svg">
<g id="Group">
<path id="Vector" d="M4.66778 14.5341C0.897781 12.6741 -0.82222 8.43414 0.37778 4.99414C1.77778 0.964136 6.95778 -1.32586 11.4678 0.824136L4.66778 14.5441V14.5341Z" fill="var(--fill-0, #C11720)"/>
<path id="Vector_2" d="M12.3878 1.73414L5.78777 15.6541L7.62778 16.7441L14.8578 1.70414L12.3878 1.73414Z" fill="var(--fill-0, #1F74BB)"/>
<path id="Vector_3" d="M9.16778 17.3041L42.4878 46.0741C42.4878 46.0741 37.7778 44.4441 41.7178 41.3241C45.6578 38.1941 49.9678 36.1641 47.9378 33.9741C45.9078 31.7841 45.2578 29.6641 48.6678 27.7141C52.0778 25.7641 57.6878 21.7841 55.4078 19.3441C53.1278 16.9041 54.1878 15.8541 55.7378 14.4641C57.2778 13.0841 61.9978 10.3241 58.4978 9.91414C55.0078 9.50414 16.1978 3.04414 16.1978 3.04414L9.16778 17.3041Z" fill="var(--fill-0, #1F74BB)"/>
<path id="Vector_4" d="M52.3178 16.1041L15.7578 7.61414" stroke="var(--stroke-0, #E9E8CF)" stroke-width="3" stroke-linecap="round" stroke-linejoin="round"/>
<path id="Vector_5" d="M45.5178 28.3841L14.2178 11.4441" stroke="var(--stroke-0, #E9E8CF)" stroke-width="3" stroke-linecap="round" stroke-linejoin="round"/>
<path id="Vector_6" d="M39.1378 39.8341L11.7478 17.0941" stroke="var(--stroke-0, #E9E8CF)" stroke-width="3" stroke-linecap="round" stroke-linejoin="round"/>
</g>
</svg>
