<svg preserveAspectRatio="none" width="100%" height="100%" overflow="visible" style="display: block;" viewBox="0 0 45.44 48.76" fill="none" xmlns="http://www.w3.org/2000/svg">
<g id="Group">
<path id="Vector" d="M22.47 48.76C34.8798 48.76 44.94 37.8447 44.94 24.38C44.94 10.9153 34.8798 0 22.47 0C10.0602 0 0 10.9153 0 24.38C0 37.8447 10.0602 48.76 22.47 48.76Z" fill="var(--fill-0, #C11720)"/>
<path id="Vector_2" d="M15.01 1.92C26.74 9.06 32.87 19.5 30.54 27.15C29.47 30.68 26.78 32.99 25.65 33.95C16.95 41.28 4.82 37.69 3.39 37.25" stroke="var(--stroke-0, #030303)" stroke-linecap="round" stroke-linejoin="round"/>
<path id="Vector_3" d="M2.02 15.8C10.3 20.39 19.56 24.94 29.79 29.14C34.13 30.92 38.37 32.52 42.5 33.96" stroke="var(--stroke-0, #030303)" stroke-linecap="round" stroke-linejoin="round"/>
<path id="Vector_4" d="M24.05 0.550003C33.37 6.32 39.08 15.47 38.17 24.38C37.54 30.54 33.9 35 32.39 36.86C26.14 44.51 17.76 46.67 14.77 47.29" stroke="var(--stroke-0, #030303)" stroke-linecap="round" stroke-linejoin="round"/>
<path id="Vector_5" d="M44.94 22.76C42.79 25.57 40.34 29.29 38.17 33.93C36.22 38.1 35.01 41.96 34.23 45.15" stroke="var(--stroke-0, #030303)" stroke-linecap="round" stroke-linejoin="round"/>
</g>
</svg>
