<svg preserveAspectRatio="none" width="100%" height="100%" overflow="visible" style="display: block;" viewBox="0 0 41.0428 103.975" fill="none" xmlns="http://www.w3.org/2000/svg">
<g id="Group">
<path id="Vector" d="M23.193 11.3035L24.863 5.38352C26.543 1.83352 30.053 -0.296478 33.443 0.0335219C37.873 0.473522 41.643 5.09352 40.963 10.5235C40.093 12.9035 39.223 15.2935 38.353 17.6735C34.553 23.7135 32.643 29.0635 31.623 32.7335C30.923 35.2535 30.373 37.2835 30.243 40.1135C30.013 45.1435 31.413 46.0735 32.503 53.3535C33.433 59.5935 33.483 66.1135 33.483 66.1235C33.483 66.1235 31.853 73.0635 31.773 73.4135C30.903 77.1135 27.473 85.0835 16.753 103.444C15.013 103.874 13.573 103.964 12.613 103.974C11.043 103.984 6.72304 104.024 3.18304 101.134C2.21304 100.344 1.56304 99.5535 1.19304 99.0435C0.753039 91.3135 0.263041 81.1335 0.0230412 69.8535C-0.0369588 67.0035 -0.0769541 63.9035 1.22305 60.1835C2.91305 55.3535 5.98304 51.9535 10.123 47.4435C14.683 42.4835 15.863 42.4035 17.793 39.0735C19.103 36.8135 19.873 34.5635 20.893 29.3535C21.753 24.9735 22.723 18.8535 23.173 11.2935L23.193 11.3035Z" fill="var(--fill-0, #E9E8CF)"/>
<path id="Vector_2" d="M22.973 23.9335C22.843 24.6835 31.883 28.2835 32.303 27.1935" stroke="var(--stroke-0, #C11720)" stroke-width="5" stroke-linecap="round" stroke-linejoin="round"/>
<path id="Vector_3" d="M21.283 32.2835C21.243 32.4335 28.973 35.7235 29.973 34.7435" stroke="var(--stroke-0, #C11720)" stroke-width="5" stroke-linecap="round" stroke-linejoin="round"/>
</g>
</svg>
