<svg preserveAspectRatio="none" width="100%" height="100%" overflow="visible" style="display: block;" viewBox="0 0 1299.02 217.147" fill="none" xmlns="http://www.w3.org/2000/svg">
<g id="Logo">
<path id="Vector" d="M175.033 89.0797L114.904 98.6301C113.448 89.8077 104.155 84.9255 89.4651 84.9255C74.7755 84.9255 66.253 93.2339 65.525 107.923H175.033V129.423C175.033 180.044 142.528 209.123 85.5679 209.123C37.3878 209.123 6.33836 187.624 0 150.193L60.1288 140.643C61.5849 149.465 70.8783 154.348 85.5679 154.348C101.714 154.348 111.221 146.039 111.992 131.35H2.44113V109.851C2.44113 59.2722 34.2186 30.15 89.4651 30.15C137.645 30.15 168.695 51.6491 175.033 89.0797Z" fill="var(--fill-0, #1D1D1B)"/>
<path id="Vector_2" d="M418.546 19.4005V205.226H359.873V19.4005H418.546Z" fill="var(--fill-0, #1D1D1B)"/>
<path id="Vector_3" d="M496.534 70.4929V205.183H437.861V70.4929H496.534Z" fill="var(--fill-0, #1D1D1B)"/>
<path id="Vector_4" d="M574.521 58.5014L564.5 107.153C575.249 94.1761 581.845 54.6041 617.305 54.6041C635.892 54.6041 648.612 62.4414 654.479 77.8163L648.612 107.153C659.361 94.1761 665.956 54.6041 701.417 54.6041C728.055 54.6041 742.745 70.7498 742.745 102.998V205.183H684.072V120.086C684.072 110.536 678.205 104.455 671.353 104.455C666.941 104.455 662.787 105.911 658.633 108.138V205.183H599.96V120.086C599.96 110.536 594.093 104.455 587.241 104.455C582.83 104.455 578.675 105.911 574.521 108.138V205.183H515.849V58.5014H574.521Z" fill="var(--fill-0, #1D1D1B)"/>
<path id="Vector_5" d="M1029.04 156.575C1018.29 169.551 1011.7 209.123 973.795 209.123C944.716 209.123 930.026 192.977 930.026 160.729V58.5014H988.699V143.598C988.699 153.149 994.566 159.23 1003.86 159.23C1009.98 159.23 1014.61 157.774 1019.02 155.333V58.5014H1077.69V205.183H1019.02L1029.04 156.532V156.575Z" fill="var(--fill-0, #1D1D1B)"/>
<path id="Vector_6" d="M1147.37 58.5014L1167.89 154.819L1188.44 58.5014H1248.1L1207.03 205.183H1128.79L1087.71 58.5014H1147.37Z" fill="var(--fill-0, #1D1D1B)"/>
<path id="Vector_7" d="M906.472 142.014C900.99 150.707 892.21 192.678 841.118 192.421C789.555 192.164 765.058 150.151 760.432 142.014C751.696 126.724 792.895 64.4543 841.975 68.9939C885.144 73.0197 915.936 127.067 906.472 142.014Z" fill="var(--fill-0, #1F74BB)"/>
<path id="Vector_8" d="M772.595 197.217C759.961 188.738 752.038 173.192 753.837 158.074C755.636 142.956 767.756 129.294 782.831 126.939C797.692 124.583 812.039 132.463 825.443 139.273C838.891 146.082 854.737 152.121 868.57 146.168C877.649 142.271 884.673 133.534 894.48 132.335C901.846 131.435 909.298 135.29 913.709 141.243C918.121 147.196 919.662 154.947 919.02 162.314C918.292 171.05 914.566 179.487 908.699 185.997C897.606 198.16 880.262 202.399 863.816 203.299C838.163 204.755 794.993 212.25 772.595 197.217Z" fill="var(--fill-0, white)" stroke="var(--stroke-0, #C11720)" stroke-width="4.06854" stroke-miterlimit="10"/>
<path id="Vector_9" d="M762.659 139.658H759.533V186.425H762.659V139.658Z" fill="var(--fill-0, #C11720)"/>
<path id="Vector_10" d="M781.803 126.039H778.677V202.87H781.803V126.039Z" fill="var(--fill-0, #C11720)"/>
<path id="Vector_11" d="M800.946 129.551H797.82V205.526H800.946V129.551Z" fill="var(--fill-0, #C11720)"/>
<path id="Vector_12" d="M820.09 135.418H816.964V206.896H820.09V135.418Z" fill="var(--fill-0, #C11720)"/>
<path id="Vector_13" d="M837.563 143.941H834.437V205.569H837.563V143.941Z" fill="var(--fill-0, #C11720)"/>
<path id="Vector_14" d="M856.707 147.067H853.581V205.569H856.707V147.067Z" fill="var(--fill-0, #C11720)"/>
<path id="Vector_15" d="M875.85 141.714H872.724V202.87H875.85V141.714Z" fill="var(--fill-0, #C11720)"/>
<path id="Vector_16" d="M894.052 131.949H890.925V198.331H894.052V131.949Z" fill="var(--fill-0, #C11720)"/>
<path id="Vector_17" d="M913.195 138.459H910.069V181.329H913.195V138.459Z" fill="var(--fill-0, #C11720)"/>
<path id="Vector_18" d="M821.161 124.883C820.39 125.225 819.019 125.868 817.092 125.996C809.212 126.553 800.39 118.202 802.017 112.763C802.445 111.392 803.302 110.108 804.758 108.994C808.827 105.868 816.493 104.84 816.964 104.797C821.46 104.24 825.186 104.797 827.071 105.654C828.056 106.082 828.784 106.639 829.426 107.581C832.424 111.949 828.184 121.628 821.118 124.926L821.161 124.883Z" fill="var(--fill-0, #E9E8CF)"/>
<path id="Vector_19" d="M821.675 120.6C824.986 120.6 827.67 117.916 827.67 114.604C827.67 111.293 824.986 108.609 821.675 108.609C818.363 108.609 815.679 111.293 815.679 114.604C815.679 117.916 818.363 120.6 821.675 120.6Z" fill="var(--fill-0, #2B421C)"/>
<path id="Vector_20" d="M855.722 124.883C854.951 125.225 853.581 125.868 851.653 125.996C843.773 126.553 834.951 118.202 836.578 112.763C837.007 111.392 837.863 110.108 839.319 108.994C843.388 105.868 851.054 104.84 851.525 104.797C856.022 104.24 859.748 104.797 861.632 105.654C862.617 106.082 863.345 106.639 863.987 107.581C866.985 111.949 862.745 121.628 855.679 124.926L855.722 124.883Z" fill="var(--fill-0, #E9E8CF)"/>
<path id="Vector_21" d="M856.236 120.6C859.547 120.6 862.232 117.916 862.232 114.604C862.232 111.293 859.547 108.609 856.236 108.609C852.924 108.609 850.24 111.293 850.24 114.604C850.24 117.916 852.924 120.6 856.236 120.6Z" fill="var(--fill-0, #2B421C)"/>
<g id="Group">
<path id="Vector_22" d="M467.197 65.4393C483.849 65.4393 497.347 50.7902 497.347 32.7197C497.347 14.6491 483.849 0 467.197 0C450.546 0 437.047 14.6491 437.047 32.7197C437.047 50.7902 450.546 65.4393 467.197 65.4393Z" fill="var(--fill-0, #ED772A)"/>
<path id="Vector_23" d="M457.219 2.56963C472.936 12.1628 481.159 26.1244 478.033 36.4028C476.576 41.1566 472.979 44.2401 471.48 45.5249C459.788 55.3751 443.557 50.5356 441.63 49.9361" stroke="var(--stroke-0, #030303)" stroke-width="1.32763" stroke-linecap="round" stroke-linejoin="round"/>
<path id="Vector_24" d="M439.788 21.1992C450.88 27.3663 463.3 33.4477 477.047 39.1008C482.872 41.4991 488.568 43.6405 494.093 45.5677" stroke="var(--stroke-0, #030303)" stroke-width="1.32763" stroke-linecap="round" stroke-linejoin="round"/>
<path id="Vector_25" d="M469.339 0.728047C481.844 8.47969 489.51 20.7282 488.268 32.6768C487.412 40.9424 482.529 46.8953 480.516 49.4221C472.122 59.7005 460.902 62.5699 456.876 63.4265" stroke="var(--stroke-0, #030303)" stroke-width="1.32763" stroke-linecap="round" stroke-linejoin="round"/>
<path id="Vector_26" d="M497.347 30.5355C494.478 34.3043 491.18 39.2722 488.268 45.5249C485.656 51.1352 484.028 56.2744 483 60.5571" stroke="var(--stroke-0, #030303)" stroke-width="1.32763" stroke-linecap="round" stroke-linejoin="round"/>
</g>
<g id="Group_2">
<path id="Vector_27" d="M1278.08 60.0003C1282.66 55.2037 1289.81 54.647 1294.44 58.0731C1299.84 62.0988 1300.82 70.9211 1295.47 76.7028L1278.08 60.0003Z" fill="var(--fill-0, #E7382C)"/>
<path id="Vector_28" d="M1293.63 77.6449L1275.85 61.1566L1273.37 63.3836L1292.51 81.3709L1293.63 77.6449Z" fill="var(--fill-0, #9FD6DF)"/>
<path id="Vector_29" d="M1271.78 65.4393L1212.85 101.842C1212.85 101.842 1217.52 95.5465 1220.35 102.913C1223.18 110.322 1224.2 117.731 1228.44 115.718C1232.68 113.705 1236.2 113.748 1237.48 119.786C1238.76 125.825 1242.11 136.146 1246.86 133.876C1251.61 131.607 1252.68 133.705 1254.01 136.66C1255.34 139.615 1257.27 148.009 1259.54 142.956C1261.81 137.902 1289.86 82.6985 1289.86 82.6985L1271.78 65.3965V65.4393Z" fill="var(--fill-0, #9FD6DF)"/>
<path id="Vector_30" d="M1253.2 130.793L1283.22 79.9147" stroke="var(--stroke-0, #E9E8CF)" stroke-width="4.71095" stroke-linecap="round" stroke-linejoin="round"/>
<path id="Vector_31" d="M1237.95 114.776L1278.17 75.8034" stroke="var(--stroke-0, #E9E8CF)" stroke-width="4.71095" stroke-linecap="round" stroke-linejoin="round"/>
<path id="Vector_32" d="M1223.82 99.7864L1270.88 69.4222" stroke="var(--stroke-0, #E9E8CF)" stroke-width="4.71095" stroke-linecap="round" stroke-linejoin="round"/>
</g>
<path id="Vector_33" d="M262.77 73.5613L226.37 86.623C201.168 95.6663 188.07 123.427 197.113 148.628L210.175 185.028C219.218 210.23 246.978 223.328 272.18 214.285L308.58 201.223C333.781 192.18 346.88 164.419 337.837 139.218L324.775 102.818C315.732 77.6167 287.971 64.518 262.77 73.5613Z" fill="var(--fill-0, #D81D61)"/>
<path id="Vector_34" d="M339.317 129.08C338.931 133.106 338.117 136.36 337.432 138.587C326.683 131.093 301.8 116.061 267.667 115.632C231.821 115.204 205.697 131.093 194.948 138.587C192.935 136.103 190.194 131.864 190.365 126.767C190.579 121.371 194.005 115.932 203.085 109.851C224.412 95.5037 249.937 95.6322 296.961 91.3495C313.492 89.8506 323.428 88.6514 330.623 96.5744C336.961 103.598 340.43 117.003 339.317 129.08Z" fill="var(--fill-0, #2E7E33)"/>
<path id="Vector_35" d="M155.547 95.2468C148.823 98.5873 148.78 113.191 148.78 114.69C148.78 117.602 149.166 120.001 149.508 121.671C149.508 121.671 156.618 121.071 165.311 121.243C169.251 121.328 171.607 121.671 190.408 125.311C190.408 125.311 190.408 125.311 190.408 125.226C190.408 125.226 187.11 118.502 183.898 113.234C180.515 107.709 164.369 90.9213 155.633 95.2896L155.547 95.2468Z" fill="var(--fill-0, #2E7E33)"/>
<path id="Vector_36" d="M183.384 129.123C168.695 129.508 154.262 142.228 150.793 157.303C147.024 173.748 156.532 191.65 162.356 191.693C166.211 191.693 168.78 183.084 172.592 170.622C178.459 151.393 179.016 135.333 187.196 132.463C188.609 131.949 192.464 131.093 192.378 130.408C192.378 130.151 191.864 129.979 189.68 129.679C186.982 129.294 184.155 129.08 183.427 129.123H183.384Z" fill="var(--fill-0, #2E7E33)"/>
<path id="Vector_37" d="M324.284 161.371C328.567 157.217 331.137 149.551 328.267 145.011C322.828 136.489 300.772 143.213 296.918 148.823C295.376 151.093 295.205 153.406 295.205 153.406C295.205 153.406 295.034 155.975 296.533 158.588C299.573 163.984 315.591 169.894 324.327 161.371H324.284Z" fill="var(--fill-0, white)"/>
<path id="Vector_38" d="M282.657 158.074C283.128 157.174 283.642 155.975 283.642 154.519C283.599 144.755 262.057 133.191 253.577 139.487C249.338 142.656 249.252 149.637 249.252 150.065C249.252 154.176 250.965 157.731 252.678 159.701C257.774 165.44 270.28 165.397 282.657 158.074Z" fill="var(--fill-0, white)"/>
<path id="Vector_39" d="M317.561 161.328C320.21 161.328 322.357 159.181 322.357 156.532C322.357 153.883 320.21 151.735 317.561 151.735C314.911 151.735 312.764 153.883 312.764 156.532C312.764 159.181 314.911 161.328 317.561 161.328Z" fill="var(--fill-0, #333333)"/>
<path id="Vector_40" d="M276.832 158.331C279.481 158.331 281.629 156.183 281.629 153.534C281.629 150.885 279.481 148.737 276.832 148.737C274.183 148.737 272.036 150.885 272.036 153.534C272.036 156.183 274.183 158.331 276.832 158.331Z" fill="var(--fill-0, #333333)"/>
</g>
</svg>
