<svg preserveAspectRatio="none" width="100%" height="100%" overflow="visible" style="display: block;" viewBox="0 0 125.24 69.1683" fill="none" xmlns="http://www.w3.org/2000/svg">
<g id="Group">
<path id="Vector" d="M0.0200005 32.5082C0.43 32.0082 1.04 31.2582 1.81 30.3782C6.76 24.6982 28.73 -0.521768 63.57 0.0082316C87.75 0.368232 110.91 13.0282 122.64 31.0082C123.8 32.7882 124.66 34.3282 125.24 35.4282C124.76 36.8182 124.02 38.7182 122.89 40.8482C112.44 60.6982 85.78 69.1482 65.81 69.1682C28.04 69.2182 4.89 39.1582 1.71 34.8982C0.989999 33.9282 0.41 33.0982 0 32.5082H0.0200005Z" fill="var(--fill-0, #C11720)"/>
<g id="Vector_2">
<path d="M96.58 11.8982C98.27 12.7282 96.58 58.2082 96.58 58.2082Z" fill="var(--fill-0, #FFFEFA)"/>
<path d="M96.58 11.8982C98.27 12.7282 96.58 58.2082 96.58 58.2082" stroke="var(--stroke-0, #E9E8CF)" stroke-width="3" stroke-miterlimit="10"/>
</g>
<g id="Vector_3">
<path d="M69.49 24.1282C71.18 24.5082 69.49 45.2082 69.49 45.2082Z" fill="var(--fill-0, #FFFEFA)"/>
<path d="M69.49 24.1282C71.18 24.5082 69.49 45.2082 69.49 45.2082" stroke="var(--stroke-0, #E9E8CF)" stroke-width="3" stroke-miterlimit="10"/>
</g>
<g id="Vector_4">
<path d="M61.86 24.1282C63.55 24.5082 61.86 45.2082 61.86 45.2082Z" fill="var(--fill-0, #FFFEFA)"/>
<path d="M61.86 24.1282C63.55 24.5082 61.86 45.2082 61.86 45.2082" stroke="var(--stroke-0, #E9E8CF)" stroke-width="3" stroke-miterlimit="10"/>
</g>
<g id="Vector_5">
<path d="M48.78 24.1282C50.47 24.5082 48.78 45.2082 48.78 45.2082Z" fill="var(--fill-0, #FFFEFA)"/>
<path d="M48.78 24.1282C50.47 24.5082 48.78 45.2082 48.78 45.2082" stroke="var(--stroke-0, #E9E8CF)" stroke-width="3" stroke-miterlimit="10"/>
</g>
<g id="Vector_6">
<path d="M77.12 24.8782C78.81 25.2582 77.12 45.9582 77.12 45.9582Z" fill="var(--fill-0, #FFFEFA)"/>
<path d="M77.12 24.8782C78.81 25.2582 77.12 45.9582 77.12 45.9582" stroke="var(--stroke-0, #E9E8CF)" stroke-width="3" stroke-miterlimit="10"/>
</g>
<g id="Vector_7">
<path d="M38.43 24.5082C40.12 24.8882 38.43 45.5882 38.43 45.5882Z" fill="var(--fill-0, #FFFEFA)"/>
<path d="M38.43 24.5082C40.12 24.8882 38.43 45.5882 38.43 45.5882" stroke="var(--stroke-0, #E9E8CF)" stroke-width="3" stroke-miterlimit="10"/>
</g>
<g id="Vector_8">
<path d="M28.07 11.4282C29.76 12.2582 28.07 57.7382 28.07 57.7382Z" fill="var(--fill-0, #FFFEFA)"/>
<path d="M28.07 11.4282C29.76 12.2582 28.07 57.7382 28.07 57.7382" stroke="var(--stroke-0, #E9E8CF)" stroke-width="3" stroke-miterlimit="10"/>
</g>
<g id="Vector_9">
<path d="M25.06 35.4282C26.39 33.7382 99.4 35.4282 99.4 35.4282Z" fill="var(--fill-0, #FFFEFA)"/>
<path d="M25.06 35.4282C26.39 33.7382 99.4 35.4282 99.4 35.4282" stroke="var(--stroke-0, #E9E8CF)" stroke-width="3" stroke-miterlimit="10"/>
</g>
</g>
</svg>
