<svg preserveAspectRatio="none" width="100%" height="100%" overflow="visible" style="display: block;" viewBox="0 0 99.7157 88.5324" fill="none" xmlns="http://www.w3.org/2000/svg">
<g id="Group">
<path id="Vector" d="M94.3831 87.4716C95.8531 89.0016 98.2231 88.7716 99.2031 87.4516C100.103 86.2516 99.8331 84.1816 98.2731 83.0616C87.8231 72.8816 77.3731 62.7116 66.9131 52.5316C69.3031 34.9616 61.5231 18.6116 47.9331 11.4116C36.6731 5.44163 19.7231 4.88163 12.0731 13.7816C1.22312 26.4216 10.6431 56.3316 30.2331 63.4616C42.7131 68.0116 54.9831 61.7216 58.1831 59.9616L94.3931 87.4716H94.3831Z" fill="var(--fill-0, #2E7E33)"/>
<path id="Vector_2" d="M63.2597 48.3475C69.1878 37.5018 62.2351 22.2827 47.7304 14.3548C33.2257 6.42684 16.6618 8.79225 10.7337 19.638C4.80564 30.4838 11.7584 45.7029 26.263 53.6308C40.7677 61.5587 57.3317 59.1933 63.2597 48.3475Z" fill="var(--fill-0, #E9E8CF)"/>
<path id="Vector_3" d="M8.63312 27.2316C8.63312 27.2316 35.6431 47.9116 40.4231 50.2816C45.2131 52.6516 59.0131 55.7516 59.0131 55.7516" stroke="var(--stroke-0, #2B421C)" stroke-width="2" stroke-miterlimit="10"/>
<path id="Vector_4" d="M10.2631 17.7016C10.2631 17.7016 39.1631 40.3716 44.2831 42.9716C49.4031 45.5616 64.1931 48.9516 64.1931 48.9516" stroke="var(--stroke-0, #2B421C)" stroke-width="2" stroke-miterlimit="10"/>
<path id="Vector_5" d="M17.3331 10.9616C23.8631 18.6316 34.0131 28.5416 48.6031 36.4816C54.6131 39.7516 60.3631 42.1416 65.5531 43.9016" stroke="var(--stroke-0, #2B421C)" stroke-width="2" stroke-miterlimit="10"/>
<path id="Vector_6" d="M27.6431 8.62163C40.7231 19.7016 50.6731 27.8316 54.5631 30.8016C56.7931 32.5016 58.8831 34.0216 58.8831 34.0216C61.6331 36.0316 63.9631 37.6416 65.6031 38.7516" stroke="var(--stroke-0, #2B421C)" stroke-width="2" stroke-miterlimit="10"/>
<path id="Vector_7" d="M47.4631 13.3816C47.4631 13.3816 32.0831 34.7016 30.3231 38.4816C28.5631 42.2616 26.2131 53.1316 26.2131 53.1316" stroke="var(--stroke-0, #2B421C)" stroke-width="2" stroke-miterlimit="10"/>
<path id="Vector_8" d="M41.7331 9.74163C41.7331 9.74163 26.3531 31.0616 24.5931 34.8416C22.8231 38.6116 20.4831 49.4916 20.4831 49.4916" stroke="var(--stroke-0, #2B421C)" stroke-width="2" stroke-miterlimit="10"/>
<path id="Vector_9" d="M34.4031 8.12163C34.4031 8.12163 20.2931 27.1116 18.6831 30.4816C17.0731 33.8516 14.9331 43.5416 14.9331 43.5416" stroke="var(--stroke-0, #2B421C)" stroke-width="2" stroke-miterlimit="10"/>
<path id="Vector_10" d="M52.5731 16.9816C52.5731 16.9816 36.8031 37.9316 34.9831 41.6416C33.1631 45.3416 30.7231 56.0016 30.7231 56.0016" stroke="var(--stroke-0, #2B421C)" stroke-width="2" stroke-miterlimit="10"/>
<path id="Vector_11" d="M59.0331 20.4316C59.0331 20.4316 41.6131 40.1116 39.4931 43.6716C37.3731 47.2216 34.0731 57.6716 34.0731 57.6716" stroke="var(--stroke-0, #2B421C)" stroke-width="2" stroke-miterlimit="10"/>
<path id="Vector_12" d="M61.7631 25.9516C61.7631 25.9516 45.3231 42.8916 43.3531 45.9616C41.3731 49.0316 38.3631 58.1016 38.3631 58.1016" stroke="var(--stroke-0, #2B421C)" stroke-width="2" stroke-miterlimit="10"/>
</g>
</svg>
