<svg preserveAspectRatio="none" width="100%" height="100%" overflow="visible" style="display: block;" viewBox="0 0 45.9955 45.9955" fill="none" xmlns="http://www.w3.org/2000/svg">
<g id="Calque_1" clip-path="url(#clip0_423_282)">
<path id="Vector" d="M23 46C35.7025 46 46 35.7025 46 23C46 10.2975 35.7025 0 23 0C10.2975 0 0 10.2975 0 23C0 35.7025 10.2975 46 23 46Z" fill="var(--fill-0, #46428F)"/>
<path id="Vector_2" d="M18.8049 16.0788C18.7415 15.4489 18.8004 14.8325 18.959 14.2569C19.3125 13.0016 20.16 11.9366 21.3293 11.3701C23.0877 10.5135 25.5214 10.8036 26.6272 12.4079C28.014 14.4156 26.7994 17.7511 24.4564 18.5624C23.0741 19.0382 21.4471 18.5896 20.2053 17.4837" stroke="var(--stroke-0, #E9E8D1)" stroke-width="1.35961" stroke-miterlimit="10"/>
<path id="Vector_3" d="M12.4247 34.4654C12.4247 34.4654 8.13742 23.7427 10.6391 23.5025C13.1408 23.2623 36.0184 20.6428 36.1362 23.5025C36.2541 26.3622 32.2024 35.6574 32.2024 35.6574" stroke="var(--stroke-0, #E9E8D1)" stroke-width="1.35961" stroke-miterlimit="10"/>
</g>
<defs>
<clipPath id="clip0_423_282">
<rect width="45.9955" height="45.9955" fill="white"/>
</clipPath>
</defs>
</svg>
