<svg preserveAspectRatio="none" width="100%" height="100%" overflow="visible" style="display: block;" viewBox="0 0 31.3327 30.8249" fill="none" xmlns="http://www.w3.org/2000/svg">
<path id="Vector" d="M4.92114 16.349C3.52542 16.0272 2.1297 15.701 0.733975 15.3792C0.910707 13.5485 1.09197 11.7132 1.2687 9.88242C3.11305 10.0229 4.9574 10.1588 6.79722 10.2993C7.28663 9.62412 7.78057 8.94892 8.26998 8.27371C7.81229 6.54718 7.3546 4.82519 6.90144 3.09866C8.21559 2.37361 9.52522 1.65309 10.8394 0.928034C11.578 2.31016 12.3167 3.69682 13.0599 5.08349C14.1338 4.99285 15.2124 4.90222 16.2863 4.81159C16.9842 3.52009 17.6821 2.22406 18.3799 0.932566C20.1518 1.82982 21.9281 2.72707 23.7 3.62432C22.9704 5.11521 22.2453 6.61063 21.5158 8.10151L25.0141 12.0259L30.5291 11.5999L30.6424 17.6541L24.9779 18.7779L21.8737 21.882L24.851 27.9861L19.2137 29.9845L16.5945 24.8185L12.7698 25.6614L9.74274 29.8485L4.57674 28.0767L6.45735 23.169L5.33805 20.3458" stroke="var(--stroke-0, #E9E8D1)" stroke-width="1.35961" stroke-miterlimit="10"/>
</svg>
