<svg width="512" height="512" viewBox="0 0 512 512" fill="none" xmlns="http://www.w3.org/2000/svg">
  <!-- Fond fuchsia brand.primary -->
  <rect width="512" height="512" fill="#1D1D1B" rx="96"/>
  <!-- Mascotte Solimouv' centrée, mise à l'échelle depuis viewBox 42 0 40 50 -->
  <g transform="translate(56, 56) scale(8)">
    <!-- Corps rose -->
    <path d="M28.51 36.4C31.62 35.57 34.06 34.66 35.01 32.6C35.44 31.66 35.62 30.37 36.75 28.37C37.42 27.17 37.88 26.54 38.21 26.2C39.29 25.09 38.24 20.85 28.51 6.82C26.18 3.62 23.95 2.01 22.42 2.47C19.52 3.34 0.96 20.74 0.96 20.74L5.31 36.4C5.32 36.61 5.37 36.86 5.47 37.11C7.51 42.02 27.06 36.78 28.51 36.4Z" fill="#DA1864"/>
    <!-- Oeil gauche blanc -->
    <path d="M32.68 30.25C33.68 29.28 34.28 27.49 33.61 26.43C32.34 24.44 27.19 26.01 26.29 27.32C25.93 27.85 25.89 28.39 25.89 28.39C25.89 28.39 25.85 28.99 26.2 29.6C26.91 30.86 30.65 32.24 32.69 30.25H32.68Z" fill="#E9E8CF"/>
    <!-- Oeil droit blanc -->
    <path d="M22.95 29.48C23.06 29.27 23.18 28.99 23.18 28.65C23.17 26.37 18.14 23.67 16.16 25.14C15.17 25.88 15.15 27.51 15.15 27.61C15.15 28.57 15.55 29.4 15.95 29.86C17.14 31.2 20.06 31.19 22.95 29.48Z" fill="#E9E8CF"/>
    <!-- Base verte -->
    <path d="M39.3 22.93C39.2 23.87 38.99 24.63 38.81 25.15C36.01 23.4 29.53 19.89 20.63 19.79C11.29 19.69 4.49 23.4 1.69 25.15C1.17 24.57 0.45 23.58 0.5 22.39C0.55 21.13 1.45 19.86 3.81 18.44C9.37 15.09 16.02 15.12 28.27 14.12C32.58 13.77 35.17 13.49 37.03 15.34C38.68 16.98 39.59 20.11 39.3 22.93Z" fill="#C3D33D"/>
    <!-- Pupille gauche -->
    <path d="M31.1 30.25C31.7186 30.25 32.22 29.7486 32.22 29.13C32.22 28.5115 31.7186 28.01 31.1 28.01C30.4814 28.01 29.98 28.5115 29.98 29.13C29.98 29.7486 30.4814 30.25 31.1 30.25Z" fill="#2B421C"/>
    <!-- Pupille droite -->
    <path d="M21.59 29.55C22.2086 29.55 22.71 29.0486 22.71 28.43C22.71 27.8114 22.2086 27.31 21.59 27.31C20.9714 27.31 20.47 27.8114 20.47 28.43C20.47 29.0486 20.9714 29.55 21.59 29.55Z" fill="#2B421C"/>
  </g>
</svg>
