<svg width="292" height="50" viewBox="0 0 292 50" fill="none" xmlns="http://www.w3.org/2000/svg">
<g clip-path="url(#clip0_74_224)">
<path d="M40.87 17.27L26.83 19.5C26.49 17.44 24.32 16.3 20.89 16.3C17.46 16.3 15.47 18.24 15.3 21.67H40.87V26.69C40.87 38.51 33.28 45.3 19.98 45.3C8.73 45.3 1.48 40.28 0 31.54L14.04 29.31C14.38 31.37 16.55 32.51 19.98 32.51C23.75 32.51 25.97 30.57 26.15 27.14H0.57V22.12C0.57 10.3 7.99 3.51001 20.89 3.51001C32.14 3.51001 39.39 8.53001 40.87 17.27Z" fill="#1D1D1B"/>
<path d="M97.73 1V44.39H84.03V1H97.73Z" fill="#1D1D1B"/>
<path d="M115.94 12.93V44.38H102.24V12.93H115.94Z" fill="#1D1D1B"/>
<path d="M134.15 10.13L131.81 21.49C134.32 18.46 135.86 9.22 144.14 9.22C148.48 9.22 151.45 11.05 152.82 14.64L151.45 21.49C153.96 18.46 155.5 9.22 163.78 9.22C170 9.22 173.43 12.99 173.43 20.52V44.38H159.73V24.51C159.73 22.28 158.36 20.86 156.76 20.86C155.73 20.86 154.76 21.2 153.79 21.72V44.38H140.09V24.51C140.09 22.28 138.72 20.86 137.12 20.86C136.09 20.86 135.12 21.2 134.15 21.72V44.38H120.45V10.13H134.15Z" fill="#1D1D1B"/>
<path d="M240.28 33.02C237.77 36.05 236.23 45.29 227.38 45.29C220.59 45.29 217.16 41.52 217.16 33.99V10.13H230.86V30C230.86 32.23 232.23 33.65 234.4 33.65C235.83 33.65 236.91 33.31 237.94 32.74V10.13H251.64V44.38H237.94L240.28 33.02Z" fill="#1D1D1B"/>
<path d="M267.91 10.13L272.7 32.62L277.5 10.13H291.43L281.84 44.38H263.57L253.98 10.13H267.91Z" fill="#1D1D1B"/>
<path d="M110.26 0H107.92C104.689 0 102.07 2.61913 102.07 5.85C102.07 9.08087 104.689 11.7 107.92 11.7H110.26C113.491 11.7 116.11 9.08087 116.11 5.85C116.11 2.61913 113.491 0 110.26 0Z" fill="#474395"/>
<path d="M70.51 42.4C73.62 41.57 76.06 40.66 77.01 38.6C77.44 37.66 77.62 36.37 78.75 34.37C79.42 33.17 79.88 32.54 80.21 32.2C81.29 31.09 80.24 26.85 70.51 12.82C68.18 9.62001 65.95 8.01001 64.42 8.47001C61.52 9.34001 42.96 26.74 42.96 26.74L47.31 42.4C47.32 42.61 47.37 42.86 47.47 43.11C49.51 48.02 69.06 42.78 70.51 42.4Z" fill="#DA1864"/>
<path d="M74.68 36.25C75.68 35.28 76.28 33.49 75.61 32.43C74.34 30.44 69.19 32.01 68.29 33.32C67.93 33.85 67.89 34.39 67.89 34.39C67.89 34.39 67.85 34.99 68.2 35.6C68.91 36.86 72.65 38.24 74.69 36.25H74.68Z" fill="#E9E8CF"/>
<path d="M64.95 35.48C65.06 35.27 65.18 34.99 65.18 34.65C65.17 32.37 60.14 29.67 58.16 31.14C57.17 31.88 57.15 33.51 57.15 33.61C57.15 34.57 57.55 35.4 57.95 35.86C59.14 37.2 62.06 37.19 64.95 35.48Z" fill="#E9E8CF"/>
<path d="M81.3 28.93C81.2 29.87 80.99 30.63 80.81 31.15C78.01 29.4 71.53 25.89 62.63 25.79C53.29 25.69 46.49 29.4 43.69 31.15C43.17 30.57 42.45 29.58 42.5 28.39C42.55 27.13 43.45 25.86 45.81 24.44C51.37 21.09 58.02 21.12 70.27 20.12C74.58 19.77 77.17 19.49 79.03 21.34C80.68 22.98 81.59 26.11 81.3 28.93Z" fill="#C3D33D"/>
<path d="M34.37 21.03C32.8 21.81 32.79 25.22 32.79 25.57C32.79 26.25 32.88 26.81 32.96 27.2C32.96 27.2 34.62 27.06 36.65 27.1C37.57 27.12 38.12 27.2 42.51 28.05C42.51 28.05 42.51 28.05 42.51 28.03C42.51 28.03 41.74 26.46 40.99 25.23C40.2 23.94 36.43 20.02 34.39 21.04L34.37 21.03Z" fill="#C3D33D"/>
<path d="M40.87 28.94C37.44 29.03 34.07 32 33.26 35.52C32.38 39.36 34.6 43.54 35.96 43.55C36.86 43.55 37.46 41.54 38.35 38.63C39.72 34.14 39.85 30.39 41.76 29.72C42.09 29.6 42.99 29.4 42.97 29.24C42.97 29.18 42.85 29.14 42.34 29.07C41.71 28.98 41.05 28.93 40.88 28.94H40.87Z" fill="#C3D33D"/>
<path d="M73.1 36.25C73.7186 36.25 74.22 35.7486 74.22 35.13C74.22 34.5115 73.7186 34.01 73.1 34.01C72.4814 34.01 71.98 34.5115 71.98 35.13C71.98 35.7486 72.4814 36.25 73.1 36.25Z" fill="#2B421C"/>
<path d="M63.59 35.55C64.2086 35.55 64.71 35.0486 64.71 34.43C64.71 33.8114 64.2086 33.31 63.59 33.31C62.9714 33.31 62.47 33.8114 62.47 34.43C62.47 35.0486 62.9714 35.55 63.59 35.55Z" fill="#2B421C"/>
<path d="M195.296 10.3206L175.659 29.957L195.296 49.5933L214.932 29.957L195.296 10.3206Z" fill="#E7382C"/>
<path d="M211.66 27.43C210.38 29.46 206.54 27.44 194.61 27.38C182.57 27.32 178.64 29.33 177.56 27.43C175.52 23.86 185.14 9.32 196.6 10.38C206.68 11.32 213.87 23.94 211.66 27.43Z" fill="#91CFCF"/>
<path d="M180.59 38.55C177.64 36.57 175.79 32.94 176.21 29.41C176.63 25.88 179.46 22.69 182.98 22.14C186.45 21.59 189.8 23.43 192.93 25.02C196.07 26.61 199.77 28.02 203 26.63C205.12 25.72 206.76 23.68 209.05 23.4C210.77 23.19 212.51 24.09 213.54 25.48C214.57 26.87 214.93 28.68 214.78 30.4C214.61 32.44 213.74 34.41 212.37 35.93C209.78 38.77 205.73 39.76 201.89 39.97C195.9 40.31 185.82 42.06 180.59 38.55Z" fill="white" stroke="#E62A28" stroke-width="0.95" stroke-miterlimit="10"/>
<path d="M178.27 25.1H177.54V36.02H178.27V25.1Z" fill="#E62A28"/>
<path d="M182.74 21.92H182.01V39.86H182.74V21.92Z" fill="#E62A28"/>
<path d="M187.21 22.75H186.48V40.49H187.21V22.75Z" fill="#E62A28"/>
<path d="M191.68 24.12H190.95V40.81H191.68V24.12Z" fill="#E62A28"/>
<path d="M195.76 26.1H195.03V40.49H195.76V26.1Z" fill="#E62A28"/>
<path d="M200.23 26.83H199.5V40.49H200.23V26.83Z" fill="#E62A28"/>
<path d="M204.7 25.58H203.97V39.86H204.7V25.58Z" fill="#E62A28"/>
<path d="M208.96 23.3H208.23V38.8H208.96V23.3Z" fill="#E62A28"/>
<path d="M213.43 24.82H212.7V34.83H213.43V24.82Z" fill="#E62A28"/>
<path d="M191.74 23.43C191.56 23.51 191.24 23.66 190.79 23.69C188.95 23.82 186.89 21.87 187.27 20.6C187.37 20.28 187.57 19.98 187.91 19.72C188.86 18.99 190.65 18.75 190.76 18.74C191.81 18.61 192.68 18.74 193.12 18.94C193.35 19.04 193.52 19.17 193.67 19.39C194.37 20.41 193.38 22.67 191.73 23.44L191.74 23.43Z" fill="#E9E8CF"/>
<path d="M191.86 22.42C192.633 22.42 193.26 21.7932 193.26 21.02C193.26 20.2468 192.633 19.62 191.86 19.62C191.087 19.62 190.46 20.2468 190.46 21.02C190.46 21.7932 191.087 22.42 191.86 22.42Z" fill="#2B421C"/>
<path d="M199.81 23.43C199.63 23.51 199.31 23.66 198.86 23.69C197.02 23.82 194.96 21.87 195.34 20.6C195.44 20.28 195.64 19.98 195.98 19.72C196.93 18.99 198.72 18.75 198.83 18.74C199.88 18.61 200.75 18.74 201.19 18.94C201.42 19.04 201.59 19.17 201.74 19.39C202.44 20.41 201.45 22.67 199.8 23.44L199.81 23.43Z" fill="#E9E8CF"/>
<path d="M199.93 22.42C200.703 22.42 201.33 21.7932 201.33 21.02C201.33 20.2468 200.703 19.62 199.93 19.62C199.157 19.62 198.53 20.2468 198.53 21.02C198.53 21.7932 199.157 22.42 199.93 22.42Z" fill="#2B421C"/>
</g>
<defs>
<clipPath id="clip0_74_224">
<rect width="291.43" height="49.6" fill="white"/>
</clipPath>
</defs>
</svg>
